# xmcd CD database file
#
# Track frame offsets:
#	150
#	19897
#	38162
#	60605
#	82962
#	121252
#	144890
#	164555
#	198292
#	218322
#	248397
#	264145
#
# Disc length: 4050 seconds
#
# Revision: 0
# Processed by: cddbd v1.4PL0 Copyright (c) Steve Scherf et al.
# Submitted via: CDex 1.50beta10
#
DISCID=8e0fd00c
DTITLE=Varios Artistas - Jazz Moods 80/90
DYEAR=2000
DGENRE=Jazz
TTITLE0=SuperWoman - Noel Pointer/Dave Grusin
TTITLE1=Morning Dance - Spyro Gyra
TTITLE2=The Groove - Rodney Franklin
TTITLE3=DayDreaming - Fattburger
TTITLE4=Sun Goddess - Ramsey Lewis - Earth, Wind and Fire
TTITLE5=Love Island - Deodato
TTITLE6=California Dreaming - Frank Potenza
TTITLE7=Just the two of us - Grover Washington Jr.
TTITLE8=Looking up - Casiopea
TTITLE9=Feel like making Love - bob James
TTITLE10=Elegance at the Catwalk - David Benoit
TTITLE11=Are you going with me - Pat Metheny
EXTD=YEAR: 2000
EXTT0=
EXTT1=
EXTT2=
EXTT3=
EXTT4=
EXTT5=
EXTT6=
EXTT7=
EXTT8=
EXTT9=
EXTT10=
EXTT11=
PLAYORDER=
